<?xml version="1.0" encoding="UTF-8"?>
<svg id="Gfx" xmlns="http://www.w3.org/2000/svg" viewBox="0 0 48 48">
  <defs>
    <style>
      .cls-1 {
        fill: #fff;
      }
    </style>
  </defs>
  <path class="cls-1" d="M20.43,24.18c-.94.94-1.46,2.2-1.46,3.53s.52,2.59,1.46,3.54c.95.94,2.2,1.46,3.54,1.46s2.59-.52,3.54-1.46c.82-.82,1.29-1.87,1.41-3.01h.03v-.35c0-.06.02-.12.02-.18s-.02-.12-.02-.18v-14.76c1.83.95,6.61,1.72,8.94,1.72v-2.01c-8.4-1.35-11.9-8.61-11.9-8.61l-.04,19.25c-.62-.27-1.29-.41-1.98-.41-1.33,0-2.59.52-3.54,1.47Z"/>
  <path class="cls-1" d="M31.37,35.07c1.97-1.97,3.05-4.59,3.05-7.37h-1.5c0,2.38-.93,4.62-2.61,6.31s-3.93,2.61-6.31,2.61q-.01.41,0,1.5c2.78,0,5.4-1.08,7.37-3.05Z"/>
  <path class="cls-1" d="M38.92,27.7c0,3.99-1.55,7.73-4.37,10.55-2.82,2.82-6.57,4.37-10.55,4.37-.01.41,0,1.5,0,1.5,4.39,0,8.51-1.71,11.61-4.81,3.1-3.1,4.81-7.23,4.81-11.61h-1.5Z"/>
  <path class="cls-1" d="M21.99,19.01v-1.54c-2.02.39-3.87,1.37-5.36,2.86-1.97,1.97-3.05,4.59-3.05,7.37h1.5c0-2.38.93-4.62,2.61-6.31,1.2-1.2,2.68-2.01,4.3-2.38Z"/>
  <path class="cls-1" d="M21.99,12.93v-1.51c-3.62.44-6.98,2.05-9.6,4.67-3.1,3.1-4.81,7.23-4.81,11.61h1.5c0-3.99,1.55-7.73,4.37-10.55,2.34-2.34,5.32-3.79,8.54-4.22Z"/>
</svg>